<svg xmlns="http://www.w3.org/2000/svg" id="Calque_2" data-name="Calque 2"
  viewBox="0 0.0003771781921386719 56.869998931884766 61.669620513916016">
  <defs>
    <style>
      .cls-1 {
        fill: #00843d;
      }

      .cls-2 {
        fill: #c8102e;
      }

      .cls-3 {
        fill: #1a1a1a;
      }
    </style>
  </defs>
  <g id="Calque_1-2" data-name="Calque 1">
    <g>
      <path class="cls-2"
        d="M3.09,42.32l16.5-20.11c.13-.15.23-.33.29-.52L26.83,2.34c.55-1.53-1.1-2.91-2.51-2.1L.87,13.75c-.54.31-.87.89-.87,1.51v25.95c0,1.64,2.05,2.37,3.09,1.11Z">
      </path>
      <path class="cls-3"
        d="M53.34,44.78l-24.3-8.98c-.39-.14-.82-.14-1.21,0L3.53,44.78c-1.39.51-1.55,2.42-.25,3.15l24.3,13.74h1.72l24.3-13.74c1.29-.73,1.14-2.64-.25-3.15Z">
      </path>
      <path class="cls-1"
        d="M55.99,13.75L32.55.24c-1.41-.81-3.06.57-2.51,2.1l6.95,19.35c.07.19.17.36.29.52l16.5,20.11c1.04,1.27,3.09.53,3.09-1.11V15.26c0-.62-.33-1.2-.87-1.51Z">
      </path>
    </g>

  </g>
  <script xmlns=""></script>
</svg>