<svg version="1.1" id="Layer_1" xmlns="http://www.w3.org/2000/svg" xmlns:xlink="http://www.w3.org/1999/xlink" x="0px"
  y="0px" viewBox="50.29999923706055 528.9000244140625 317.20001220703125 317.20001220703125"
  style="enable-background:new 0 0 1500 1500;" xml:space="preserve">
  <style type="text/css">
    .st0 {
      fill: #404040;
    }

    .st1 {
      opacity: 0.25;
      fill: #52BBB9;
    }

    .st2 {
      fill: #52BBB9;
    }

    .st3 {
      fill: #FF8305;
    }

    .st4 {
      opacity: 0.25;
    }

    .st5 {
      fill: none;
    }
  </style>
  <g>
    <g>
      <g>
        <path class="st1" d="M206.7,528.9H50.3v0h0v46.2l0,0l0,18.5v0.1v0l0,0v0l0,0l67,38.7l9.1,5.2l80.2,46.3v-0.1V576c0,0,0,0,0,0v-28
				L206.7,528.9L206.7,528.9L206.7,528.9L206.7,528.9z"></path>
        <polygon class="st1" points="367.4,781.3 211,691 211,846.1 211,846.1 211,846.1 244.2,846.1 244.2,846.1 267.2,846.1
				267.2,846.1 325.2,846.1 325.2,846.1 367.4,846.1 367.4,846.1 367.4,781.3 			"></polygon>
      </g>
      <path class="st2" d="M367.3,781.4l-50.5-29.1l-10.1-5.8l-7.4-4.3c0,0.1,0,0.3,0,0.4c0,0.1,0,0.2,0,0.4c0,0.1,0,0.2,0,0.3
			c0,0.1,0,0.2,0,0.3c0,0.1,0,0.2,0.1,0.2c0,0.1,0.1,0.2,0.1,0.3c0,0.2,0.1,0.3,0.1,0.4c0,0.2,0.1,0.4,0.2,0.6
			c0.1,0.6,0.3,1.2,0.4,1.7c0,0.1,0,0.1,0,0.1c0,0,0,0.1,0,0.1c0.3,1.1,0.5,2.1,0.8,3.2c0,0.1,0,0.2,0.1,0.3
			c0.1,0.3,0.1,0.5,0.2,0.8c0.2,1.1,0.5,2.1,0.7,3.2c0.1,0.4,0.2,0.7,0.2,1c0,0.2,0.1,0.4,0.1,0.6c0,0.2,0.1,0.4,0.1,0.5
			c0.1,0.4,0.2,0.8,0.3,1.2c0.1,0.4,0.2,0.8,0.3,1.3v0.1c0,0.1,0,0.1,0,0.2c0,0,0,0.1,0,0.1c0,0,0,0,0,0c0,0.3,0,0.5,0.1,0.7
			c0,0,0,0,0,0c0,0.8,0,1.6,0,2.4c0,0.2,0,0.4,0,0.6c0,0.1,0,0.2,0,0.4c0,0,0,0.1,0,0.1v0.2c0,0,0,0,0,0.1c0,0,0,0,0,0
			c0,0,0,0.1,0,0.1c0,0.3-0.1,0.5-0.1,0.7c0,0.1,0,0.3,0,0.4c-0.1,0.4-0.2,0.9-0.3,1.3c0,0,0,0.1,0,0.2c-0.3,1.1-0.9,2-1.6,2.8
			c-0.7,0.8-1.6,1.4-2.7,1.8c0,0-0.1,0.1-0.2,0.1c-0.5,0.2-1.1,0.4-1.7,0.4c-0.1,0-0.1,0-0.2,0c-0.1,0-0.3,0-0.4,0.1
			c-0.6,0.1-1.4,0.2-2.3,0.4c-0.2,0-0.4,0.1-0.6,0.1c-0.5,0.1-1,0.2-1.6,0.2c-0.2,0-0.4,0.1-0.6,0.1c-0.6,0.1-1.2,0.2-1.8,0.3
			c-1.3,0.2-2.6,0.4-3.7,0.5c-1.8,0.3-3.3,0.5-3.6,0.5v0l0,0l0,0l0,0c-0.1,0-0.3,0-0.3,0c-0.2,0-0.5,0.1-1,0.2c0,0-0.1,0-0.1,0
			c-0.3,0-0.6,0.1-0.9,0.2c-0.2,0-0.4,0.1-0.6,0.1c-0.5,0.1-1,0.2-1.5,0.3c-0.2,0-0.4,0.1-0.6,0.1c-0.5,0.1-1.1,0.2-1.7,0.3
			c-0.3,0.1-0.6,0.1-0.9,0.2c-0.1,0-0.3,0-0.4,0.1c0,0-0.1,0-0.1,0c-0.8,0.1-1.6,0.3-2.4,0.5c-0.3,0.1-0.6,0.1-0.8,0.2
			c-0.3,0.1-0.6,0.1-0.8,0.2c-0.4,0.1-0.7,0.1-1,0.2c-0.5,0.1-0.9,0.2-1.4,0.3c-0.5,0.1-1.1,0.2-1.5,0.4c-0.2,0.1-0.4,0.1-0.6,0.2
			c-0.2,0-0.3,0.1-0.5,0.1c-0.1,0-0.3,0.1-0.4,0.1c-0.2,0.1-0.4,0.1-0.6,0.2c-0.3,0.1-0.7,0.2-1.1,0.3c0,0-0.1,0-0.1,0
			c-0.1,0-0.1,0.1-0.2,0.1c-0.3,0.1-0.6,0.3-0.9,0.4c-0.7,0.3-1.3,0.6-2,0.9c-0.3,0.2-0.6,0.3-0.8,0.5c-0.6,0.4-1.1,0.7-1.6,1.1
			c-0.2,0.2-0.5,0.4-0.7,0.6c-0.1,0.1-0.3,0.2-0.4,0.3c-0.3,0.3-0.6,0.5-0.9,0.8c-0.5,0.5-1,1-1.4,1.6c-0.4,0.5-0.7,0.9-1,1.4
			c0,0.1-0.1,0.1-0.1,0.2c0,0-0.1,0.1-0.1,0.1c-0.4,0.6-0.8,1.3-1.2,2c-0.1,0.3-0.3,0.5-0.4,0.8c0,0,0,0.1,0,0.1c0,0,0,0.1,0,0.1
			c0,0.1,0,0.1-0.1,0.2c0,0,0,0.1-0.1,0.1c0,0,0,0,0,0c0,0.1,0,0.1-0.1,0.2c0,0,0,0,0,0.1c0,0.1-0.1,0.1-0.1,0.2
			c-0.1,0.2-0.2,0.4-0.3,0.6c-0.2,0.5-0.4,1-0.6,1.5c-0.1,0.3-0.3,0.7-0.4,1c-0.1,0.4-0.3,0.8-0.4,1.2c-0.1,0.3-0.2,0.6-0.3,0.9
			c-0.3,0.8-0.5,1.5-0.7,2.3c-0.2,0.5-0.3,1.1-0.5,1.6c-0.1,0.2-0.1,0.4-0.2,0.7c-0.2,0.5-0.3,1.1-0.4,1.6c-0.1,0.2-0.1,0.4-0.2,0.7
			c0,0.1-0.1,0.3-0.1,0.4c-0.1,0.3-0.2,0.7-0.2,1c-0.3,1.2-0.5,2.3-0.7,3.5c0,0.3-0.1,0.6-0.1,0.8c-0.1,0.7-0.3,1.4-0.4,2.1
			c0,0.3-0.1,0.5-0.1,0.7v0v0.3c-0.1,0.3-0.1,0.5-0.1,0.8c0,0.1,0,0.3-0.1,0.4c-0.1,0.8-0.2,1.7-0.3,2.5c0,0.1,0,0.2,0,0.3
			c0,0,0,0.1,0,0.1c0,0.4-0.1,0.9-0.2,1.4l0,0.1l0,0l0,0l0,0c0,0.5-0.1,1-0.1,1.5c-0.1,1.1-0.2,2.2-0.2,3.3c0,0.1,0,0.1,0,0.2
			c0,0.1,0,0.1,0,0.2c0,0.1,0,0.1,0,0.2c-0.1,2.4-0.2,4.6-0.2,6.8c0,1.6,0,3.2,0,4.8c0,2.3,0.1,4.5,0.2,6.5c0.1,2.2,0.3,4.2,0.4,6.1
			c0,0,0,0,0,0c0,0,0,0,0,0h23.1l0,0l58,0v0h42.2h0.1v-64.7L367.3,781.4z"></path>
      <path class="st2" d="M206.7,528.9L206.7,528.9L206.7,528.9l-156.4,0v0h0v46.2l0,0l0,18.5v0.1v0l0,0l0,0v0l0,0l67,38.7l0,0l0,0l0,0
			l9.1,5.2l0,0c0,0,0-0.1,0-0.1c0-0.1,0.1-0.2,0.1-0.3l0.2-0.7c2.1-7.4,5.1-14.8,9.1-21.6h0c0.2-0.3,0.4-0.7,0.6-1
			c2.8-4.6,6-8.9,9.7-12.9c0.1-0.1,0.1-0.1,0.2-0.2c0.1-0.1,0.2-0.2,0.3-0.3c0.9-0.9,1.8-1.8,2.7-2.7c0.5-0.4,0.9-0.9,1.3-1.3
			c0.1-0.1,0.2-0.2,0.2-0.2c0.3-0.3,0.6-0.5,0.9-0.8c0.8-0.7,1.6-1.4,2.5-2.1c0.5-0.4,1-0.8,1.4-1.1c0.2-0.1,0.3-0.3,0.5-0.4
			c0.2-0.2,0.3-0.3,0.5-0.4c0.5-0.4,1.1-0.8,1.7-1.2c1.2-0.8,2.5-1.7,3.7-2.4c1.9-1.1,3.8-2.2,5.8-3.2c2.5-1.2,5.1-2.3,7.7-3.3
			c1.2-0.4,2.5-0.9,3.8-1.3c4.1-1.2,8.4-2.2,12.9-2.8c0.9-0.1,1.7-0.2,2.6-0.3c3.8-0.5,7.8-0.8,11.6-0.9c0,0,0,0,0,0c0,0,0,0,0,0
			v-28L206.7,528.9L206.7,528.9L206.7,528.9z"></path>
      <polygon class="st3" points="281.9,773.9 281.9,773.9 281.8,773.9 		"></polygon>
      <polygon class="st3" points="50.3,593.6 50.3,593.6 50.3,593.7 50.3,593.7 		"></polygon>
      <polygon class="st3" points="367.5,781.4 367.4,781.3 367.4,781.3 367.5,781.4 		"></polygon>
      <polygon class="st3" points="367.5,781.4 367.5,781.4 367.4,781.3 367.4,781.3 		"></polygon>
      <path class="st0" d="M143.8,727.8l-93.4,53.9l0,0v16v0v48.4v0v0h0h83.8h5.4c0,0,0,0,0,0c0.5-0.4,1-0.9,1.6-1.3l0.7-0.5
			c0.6-0.5,1.1-1,1.7-1.5l0.5-0.4c0.7-0.7,1.3-1.4,2-2l0.4-0.6c0.5-0.6,1-1.1,1.4-1.7l0.5-0.7c0.5-0.6,1-1.3,1.4-2l0.3-0.4
			c0.5-0.8,1-1.7,1.5-2.6l0.3-0.7c0.3-0.6,0.6-1.3,0.9-2l0.3-0.8c0.3-0.9,0.6-1.7,0.9-2.6l0.1-0.3c0.3-1,0.5-2,0.7-3.1l0.2-1
			c0.1-0.8,0.3-1.6,0.3-2.5c0-0.3,0.1-0.6,0.1-1c0.1-1.1,0.2-2.3,0.2-3.5c0-1.3,0.1-2.6,0.3-3.7c0-0.7,0.1-1.9,0.2-2.6
			c0.5-18.7,1.1-15.1,1.3-33.8c0.1-13-2.8-25.4-8.6-37.2C147.3,734.3,145.4,731,143.8,727.8z"></path>
      <path class="st0" d="M142,724.2C142,724.2,142,724.1,142,724.2c-0.1-0.2-0.1-0.3-0.2-0.5c-1-2.1-1.9-4.2-2.9-6.3
			c-0.3-0.6-0.6-1.3-0.9-2c-1.1-2.6-2.2-5.1-3.2-7.7c-0.1-0.4-0.3-0.7-0.4-1.1c-0.9-2.3-1.7-4.5-2.6-6.8c-0.3-0.7-0.5-1.4-0.7-2.1
			c-0.9-2.6-1.8-5.4-2.5-8.1c-4.5-15.8-6.5-31.7-3.1-47.8l-11.1-6.4l-64-37l0,0v97.4v81.3v0l0,0L142,724.2z"></path>
      <polygon class="st3" points="367.5,593.9 367.4,594 367.4,594 367.5,593.9 		"></polygon>
      <g class="st4">
        <path d="M281.8,774L281.8,774c-0.1,0-0.2,0-0.3,0c-0.4,0.1-2.3,0.4-4.7,0.8c-0.8,0.1-1.7,0.3-2.6,0.5c-0.2,0-0.3,0.1-0.5,0.1
				c-0.8,0.1-1.6,0.3-2.4,0.5c-0.6,0.1-1.1,0.2-1.7,0.3c-1.4,0.3-2.8,0.6-4,0.9c-0.4,0.1-0.8,0.2-1.1,0.3c-0.4,0.1-0.7,0.2-1,0.3
				c-0.4,0.1-1,0.3-1.3,0.4c-1,0.4-2,0.8-2.9,1.3c-0.3,0.2-0.6,0.3-0.8,0.5c-0.8,0.5-1.6,1.1-2.3,1.7c-0.4,0.3-0.9,0.7-1.3,1.2
				c-0.5,0.5-1,1-1.4,1.6c-0.4,0.5-0.8,1.1-1.1,1.6c-0.6,1-1.2,1.9-1.7,2.9c0,0,0,0.1,0,0.1c0,0.1,0,0.2-0.1,0.3
				c0,0-0.1,0.1-0.1,0.1c0,0.1,0,0.1-0.1,0.2c0,0.1-0.1,0.2-0.1,0.3c-0.1,0.2-0.2,0.4-0.3,0.6c-0.2,0.5-0.4,1-0.6,1.5
				c-0.1,0.3-0.3,0.7-0.4,1c-0.2,0.7-0.4,1.4-0.6,2c-0.4,1.3-0.9,2.6-1.2,3.9c-0.1,0.2-0.1,0.4-0.2,0.7c-0.2,0.7-0.4,1.5-0.6,2.3
				c-0.1,0.5-0.2,0.9-0.3,1.4c-0.3,1.2-0.5,2.3-0.7,3.5c0,0.3-0.1,0.6-0.1,0.8c-0.1,0.7-0.3,1.4-0.4,2.1c0,0.3-0.1,0.5-0.1,0.7v0.3
				c-0.1,0.4-0.1,0.8-0.2,1.2c-0.1,1-0.3,1.9-0.3,2.9c0,0.5-0.1,1-0.2,1.5l-0.1,0.1l0,0c0,0.5-0.1,1-0.1,1.5
				c-0.1,1.1-0.2,2.2-0.2,3.3l52.2-49.3C292.1,772.6,282.8,773.9,281.8,774z"></path>
        <path d="M143.8,727.7l-93.4,53.9v64.4h83.8l0,0h5.4c0.5-0.4,1-0.9,1.6-1.3l0.7-0.5c0.6-0.5,1.1-1,1.7-1.5l0.5-0.4
				c0.7-0.7,1.3-1.4,2-2l0.4-0.6c0.5-0.6,1-1.1,1.4-1.7l0.5-0.7c0.5-0.6,1-1.3,1.4-2l0.3-0.4c0.5-0.8,1-1.7,1.5-2.6l0.3-0.7
				c0.3-0.6,0.6-1.3,0.9-2l0.3-0.8c0.3-0.9,0.6-1.7,0.9-2.6l0.1-0.3c0.3-1,0.5-2,0.7-3.1l0.2-1c0.1-0.8,0.3-1.6,0.3-2.5
				c0-0.3,0.1-0.6,0.1-1c0.1-1.1,0.2-2.3,0.2-3.5c0-1.3,0.1-2.6,0.3-3.7c0-0.7,0.1-1.9,0.2-2.6c0.5-18.7,1.1-15.1,1.3-33.8
				c0.1-13-2.8-25.4-8.6-37.2C147.3,734.3,145.4,731,143.8,727.7z"></path>
        <path d="M126.5,637.6c0-0.1,0.1-0.2,0.1-0.3l0.2-0.7c2.1-7.4,5.1-14.8,9.1-21.6l-18.4,17.4l-0.1,0.1L126.5,637.6
				C126.5,637.6,126.5,637.6,126.5,637.6z"></path>
        <path d="M142,724.1c-0.1-0.2-0.1-0.3-0.2-0.5c-1-2.1-1.9-4.2-2.9-6.3c-0.3-0.6-0.6-1.3-0.9-2c-1.1-2.6-2.2-5.1-3.2-7.8
				c-0.1-0.4-0.3-0.7-0.4-1.1c-0.9-2.3-1.7-4.5-2.6-6.8c-0.3-0.7-0.5-1.4-0.7-2.1c-0.9-2.6-1.8-5.4-2.5-8.1
				c-4.5-15.8-6.5-31.7-3.1-47.8l-11.1-6.4l-64,60.4V777v0L142,724.1C142,724.1,142,724.1,142,724.1z"></path>
      </g>
      <polygon class="st3" points="50.3,593.7 50.3,593.7 50.3,593.7 50.3,593.7 		"></polygon>
      <polygon class="st5" points="367.5,598.5 367.4,598.6 367.4,598.6 367.5,598.5 		"></polygon>
      <path class="st0" d="M367.4,528.9h-42.2v0h-41.5h-73v15.4v31.6c18.6,0,36.3,4,53.1,13.3c18.5,10.3,29.4,25.5,33.4,44.1
			c0.1,0.4,0.1,0.8,0.2,1.1c0,0,0,0,0,0l69.9-40.4v0l0.1,0L367.4,528.9L367.4,528.9z"></path>
      <polygon class="st0" points="367.4,598.6 367.4,598.6 367.4,598.6 367.4,598.6 		"></polygon>
      <path class="st0" d="M298.1,638.6c0.3,2.4,0.6,4.9,0.7,7.4v1c0,1.4,0.1,2.8,0,4.2c0,2.3-0.6,4.6-1.5,6.7c-1,2.3-1.3,4.4-0.8,6.5
			c0-0.3,0-0.5-0.1-0.8c0,0.3,0.1,0.6,0.1,0.8c0,0,0,0,0,0.1c0.1,0.3,0.2,0.5,0.3,0.8v0c0.1,0.3,0.2,0.5,0.3,0.8
			c0.3,1,0.8,1.9,1.4,2.8c4.7,7.1,9.4,14.2,13.9,21.3c1.8,2.8,3.4,5.7,4.8,8.6c1.7,3.3,1.3,5-1.9,7.1c-2.8,1.8-5.9,3.3-8.9,5
			c-2.3,1.3-3.4,2.4-3.6,3.8c-0.1,0.3,0,0.8,0.1,1.2c0.2,1,0.9,2.1,2.1,3.5c0.7,0.9,1.2,1.7,1.5,2.5c0.1,0.3,0.3,0.7,0.3,1
			c0.1,1.8-1.1,3.5-3.7,5.4c0,0,0.1,0.1,0.1,0.1c0,0,0,0,0,0.1c0.7,1.3,1.1,2.4,1.4,3.4c0.1,0.4,0.3,0.8,0.3,1.2
			c0.1,1.9-1.1,3.3-3.9,5.2c-0.1,0-0.1,0.1-0.2,0.1c0,0,0,0,0,0l18.9,10.9l47.5,27.4v0l0.1,0V598.6L298.1,638.6z"></path>
      <polygon class="st5"
        points="367.5,781.5 367.5,781.5 367.5,781.5 367.5,781.5 367.4,781.5 367.4,781.5 367.5,781.5 		"></polygon>
      <polygon class="st2" points="367.3,781.4 367.3,781.4 367.3,781.4 367.4,781.5 367.4,781.4 		"></polygon>
    </g>
  </g>
</svg>